<?xml version="1.0" standalone="no"?><!DOCTYPE svg PUBLIC "-//W3C//DTD SVG 1.1//EN" "http://www.w3.org/Graphics/SVG/1.1/DTD/svg11.dtd"><svg t="1746436570532" class="icon" viewBox="0 0 1408 1024" version="1.1" xmlns="http://www.w3.org/2000/svg" p-id="20428" xmlns:xlink="http://www.w3.org/1999/xlink" width="44" height="32"><path d="M576 0H640v64h-64z" fill="#000000" p-id="20429"></path><path d="M576 64H640V128h-64z" fill="#E0B6FF" p-id="20430"></path><path d="M1024 192h64V256H1024zM128 768h64v64H128zM577.882353 960h64V1024h-64z" fill="#000000" p-id="20431"></path><path d="M576 896H640v64h-64z" fill="#7000C3" p-id="20432"></path><path d="M576 832H640V896h-64z" fill="#B652FF" p-id="20433"></path><path d="M448 64H512V128h-64zM384 128h64v64H384z" fill="#000000" p-id="20434"></path><path d="M448 128H512v64h-64zM512 128h64v64H512z" fill="#E0B6FF" p-id="20435"></path><path d="M576 128H640v64h-64zM640 128h64v64H640z" fill="#CA82FF" p-id="20436"></path><path d="M704 128H768v64h-64zM768 128h64v64H768z" fill="#9DCDF4" p-id="20437"></path><path d="M832 128H896v64h-64zM896 128h64v64H896z" fill="#CA82FF" p-id="20438"></path><path d="M320 192H384V256h-64z" fill="#000000" p-id="20439"></path><path d="M384 192h64V256H384z" fill="#E0B6FF" p-id="20440"></path><path d="M448 192H512V256h-64zM512 192h64V256H512z" fill="#CA82FF" p-id="20441"></path><path d="M576 192H640V256h-64z" fill="#ED91DC" p-id="20442"></path><path d="M640 192h64V256H640zM704 192H768V256h-64z" fill="#9DCDF4" p-id="20443"></path><path d="M768 192h64V256H768zM832 192H896V256h-64zM896 192h64V256H896z" fill="#B652FF" p-id="20444"></path><path d="M960 192H1024V256h-64z" fill="#EA6BD2" p-id="20445"></path><path d="M256 256h64v64H256z" fill="#000000" p-id="20446"></path><path d="M320 256H384v64h-64z" fill="#E0B6FF" p-id="20447"></path><path d="M384 256h64v64H384z" fill="#CA82FF" p-id="20448"></path><path d="M448 256H512v64h-64zM512 256h64v64H512z" fill="#ED91DC" p-id="20449"></path><path d="M576 256H640v64h-64zM640 256h64v64H640zM704 256H768v64h-64z" fill="#6BB0EA" p-id="20450"></path><path d="M768 256h64v64H768zM832 256H896v64h-64z" fill="#B652FF" p-id="20451"></path><path d="M896 256h64v64H896z" fill="#EA6BD2" p-id="20452"></path><path d="M960 256H1024v64h-64zM1024 256h64v64H1024z" fill="#B652FF" p-id="20453"></path><path d="M1088 256H1152v64h-64z" fill="#000000" p-id="20454"></path><path d="M1152 256h64v64H1152z" fill="#FFDE00" p-id="20455"></path><path d="M1216 256H1280v64h-64z" fill="#EDA900" p-id="20456"></path><path d="M1088 640H1152v64h-64zM1152 512h64v64H1152zM1344 320H1408V384h-64z" fill="#000000" p-id="20457"></path><path d="M1280 320h64V384H1280z" fill="#EDA900" p-id="20458"></path><path d="M1280 256h64v64H1280zM256 320h64V384H256z" fill="#000000" p-id="20459"></path><path d="M320 320H384V384h-64z" fill="#CA82FF" p-id="20460"></path><path d="M384 320h64V384H384z" fill="#ED91DC" p-id="20461"></path><path d="M448 320H512V384h-64zM512 320h64V384H512z" fill="#EA6BD2" p-id="20462"></path><path d="M576 320H640V384h-64z" fill="#6BB0EA" p-id="20463"></path><path d="M640 320h64V384H640zM704 320H768V384h-64zM768 320h64V384H768z" fill="#B652FF" p-id="20464"></path><path d="M832 320H896V384h-64z" fill="#ED91DC" p-id="20465"></path><path d="M896 320h64V384H896z" fill="#EA6BD2" p-id="20466"></path><path d="M960 320H1024V384h-64zM1024 320h64V384H1024z" fill="#B652FF" p-id="20467"></path><path d="M1088 320H1152V384h-64z" fill="#6BB0EA" p-id="20468"></path><path d="M1152 320h64V384H1152z" fill="#000000" p-id="20469"></path><path d="M1216 320H1280V384h-64z" fill="#FFDE00" p-id="20470"></path><path d="M1088 704H1152V768h-64zM1152 576h64V640H1152zM1344 384H1408v64h-64z" fill="#000000" p-id="20471"></path><path d="M1280 384h64v64H1280z" fill="#EDA900" p-id="20472"></path><path d="M192 384H256v64h-64z" fill="#000000" p-id="20473"></path><path d="M256 384h64v64H256z" fill="#CA82FF" p-id="20474"></path><path d="M320 384H384v64h-64zM384 384h64v64H384z" fill="#ED91DC" p-id="20475"></path><path d="M448 384H512v64h-64z" fill="#EA6BD2" p-id="20476"></path><path d="M512 384h64v64H512z" fill="#6BB0EA" p-id="20477"></path><path d="M576 384H640v64h-64zM640 384h64v64H640zM704 384H768v64h-64z" fill="#B652FF" p-id="20478"></path><path d="M768 384h64v64H768z" fill="#ED91DC" p-id="20479"></path><path d="M832 384H896v64h-64z" fill="#EA6BD2" p-id="20480"></path><path d="M896 384h64v64H896z" fill="#B652FF" p-id="20481"></path><path d="M960 384H1024v64h-64z" fill="#6BB0EA" p-id="20482"></path><path d="M1024 384h64v64H1024zM1088 384H1152v64h-64z" fill="#000000" p-id="20483"></path><path d="M1152 384h64v64H1152zM1216 384H1280v64h-64z" fill="#FFDE00" p-id="20484"></path><path d="M128 448h64V512H128zM192 448H256V512h-64z" fill="#000000" p-id="20485"></path><path d="M256 448h64V512H256z" fill="#CA82FF" p-id="20486"></path><path d="M320 448H384V512h-64z" fill="#EA6BD2" p-id="20487"></path><path d="M384 448h64V512H384z" fill="#9DCDF4" p-id="20488"></path><path d="M448 448H512V512h-64zM512 448h64V512H512zM576 448H640V512h-64zM640 448h64V512H640z" fill="#B652FF" p-id="20489"></path><path d="M704 448H768V512h-64zM768 448h64V512H768z" fill="#EA6BD2" p-id="20490"></path><path d="M832 448H896V512h-64zM896 448h64V512H896zM960 448H1024V512h-64z" fill="#000000" p-id="20491"></path><path d="M1024 448h64V512H1024zM1088 448H1152V512h-64z" fill="#FFDE00" p-id="20492"></path><path d="M1152 448h64V512H1152z" fill="#EDA900" p-id="20493"></path><path d="M64 512H128v64H64z" fill="#000000" p-id="20494"></path><path d="M128 512h64v64H128z" fill="#FFDE00" p-id="20495"></path><path d="M192 512H256v64h-64z" fill="#000000" p-id="20496"></path><path d="M256 512h64v64H256z" fill="#ED91DC" p-id="20497"></path><path d="M320 512H384v64h-64z" fill="#B652FF" p-id="20498"></path><path d="M384 512h64v64H384z" fill="#9DCDF4" p-id="20499"></path><path d="M448 512H512v64h-64z" fill="#B652FF" p-id="20500"></path><path d="M512 512h64v64H512zM576 512H640v64h-64z" fill="#EA6BD2" p-id="20501"></path><path d="M640 512h64v64H640zM704 512H768v64h-64zM768 512h64v64H768z" fill="#000000" p-id="20502"></path><path d="M832 512H896v64h-64z" fill="#FFDE00" p-id="20503"></path><path d="M896 512h64v64H896zM960 512H1024v64h-64zM1024 512h64v64H1024z" fill="#EDA900" p-id="20504"></path><path d="M1088 512H1152v64h-64zM0 576h64V640H0z" fill="#000000" p-id="20505"></path><path d="M64 576H128V640H64zM128 576h64V640H128z" fill="#FFDE00" p-id="20506"></path><path d="M192 576H256V640h-64z" fill="#000000" p-id="20507"></path><path d="M256 576h64V640H256z" fill="#B652FF" p-id="20508"></path><path d="M320 576H384V640h-64z" fill="#6BB0EA" p-id="20509"></path><path d="M384 576h64V640H384z" fill="#B652FF" p-id="20510"></path><path d="M448 576H512V640h-64zM512 576h64V640H512zM576 576H640V640h-64z" fill="#000000" p-id="20511"></path><path d="M640 576h64V640H640zM704 576H768V640h-64z" fill="#FFDE00" p-id="20512"></path><path d="M768 576h64V640H768zM832 576H896V640h-64z" fill="#EDA900" p-id="20513"></path><path d="M896 576h64V640H896zM960 576H1024V640h-64zM1024 576h64V640H1024z" fill="#000000" p-id="20514"></path><path d="M1088 576H1152V640h-64z" fill="#7000C3" p-id="20515"></path><path d="M0 640h64v64H0z" fill="#000000" p-id="20516"></path><path d="M64 640H128v64H64zM128 640h64v64H128zM192 640H256v64h-64z" fill="#FFDE00" p-id="20517"></path><path d="M256 640h64v64H256zM320 640H384v64h-64zM384 640h64v64H384z" fill="#000000" p-id="20518"></path><path d="M448 640H512v64h-64zM512 640h64v64H512z" fill="#EDA900" p-id="20519"></path><path d="M576 640H640v64h-64z" fill="#FFDE00" p-id="20520"></path><path d="M640 640h64v64H640z" fill="#488ECA" p-id="20521"></path><path d="M704 640H768v64h-64zM768 640h64v64H768zM832 640H896v64h-64z" fill="#000000" p-id="20522"></path><path d="M896 640h64v64H896z" fill="#C65BB2" p-id="20523"></path><path d="M960 640H1024v64h-64z" fill="#488ECA" p-id="20524"></path><path d="M1024 640h64v64H1024z" fill="#7000C3" p-id="20525"></path><path d="M64 704H128V768H64z" fill="#000000" p-id="20526"></path><path d="M128 704h64V768H128z" fill="#FFDE00" p-id="20527"></path><path d="M192 704H256V768h-64zM256 704h64V768H256zM320 704H384V768h-64zM384 704h64V768H384z" fill="#EDA900" p-id="20528"></path><path d="M384 768h64v64H384z" fill="#000000" p-id="20529"></path><path d="M448 704H512V768h-64z" fill="#EDA900" p-id="20530"></path><path d="M448 768H512v64h-64zM512 704h64V768H512z" fill="#000000" p-id="20531"></path><path d="M512 768h64v64H512z" fill="#C65BB2" p-id="20532"></path><path d="M576 704H640V768h-64z" fill="#000000" p-id="20533"></path><path d="M576 768H640v64h-64z" fill="#C65BB2" p-id="20534"></path><path d="M640 704h64V768H640z" fill="#000000" p-id="20535"></path><path d="M640 768h64v64H640z" fill="#488ECA" p-id="20536"></path><path d="M704 704H768V768h-64z" fill="#B652FF" p-id="20537"></path><path d="M704 768H768v64h-64zM768 704h64V768H768zM768 768h64v64H768z" fill="#488ECA" p-id="20538"></path><path d="M832 704H896V768h-64z" fill="#C65BB2" p-id="20539"></path><path d="M832 768H896v64h-64z" fill="#7000C3" p-id="20540"></path><path d="M896 704h64V768H896z" fill="#B652FF" p-id="20541"></path><path d="M960 704H1024V768h-64zM1024 704h64V768H1024zM896 768h64v64H896zM960 768H1024v64h-64z" fill="#7000C3" p-id="20542"></path><path d="M640 0h64v64H640z" fill="#000000" p-id="20543"></path><path d="M640 64h64V128H640z" fill="#E0B6FF" p-id="20544"></path><path d="M1088 192H1152V256h-64zM192 768H256v64h-64zM641.882353 960h64V1024h-64z" fill="#000000" p-id="20545"></path><path d="M640 896h64v64H640z" fill="#7000C3" p-id="20546"></path><path d="M640 832h64V896H640z" fill="#C65BB2" p-id="20547"></path><path d="M512 64h64V128H512zM704 0H768v64h-64z" fill="#000000" p-id="20548"></path><path d="M704 64H768V128h-64z" fill="#CA82FF" p-id="20549"></path><path d="M832 64H896V128h-64zM1152 192h64V256H1152zM1216 448H1280V512h-64zM256 768h64v64H256zM705.882353 960h64V1024h-64z" fill="#000000" p-id="20550"></path><path d="M704 896H768v64h-64z" fill="#7000C3" p-id="20551"></path><path d="M704 832H768V896h-64z" fill="#488ECA" p-id="20552"></path><path d="M832 896H896v64h-64z" fill="#000000" p-id="20553"></path><path d="M832 832H896V896h-64z" fill="#7000C3" p-id="20554"></path><path d="M448 896H512v64h-64z" fill="#000000" p-id="20555"></path><path d="M448 832H512V896h-64z" fill="#7000C3" p-id="20556"></path><path d="M768 0h64v64H768z" fill="#000000" p-id="20557"></path><path d="M768 64h64V128H768z" fill="#CA82FF" p-id="20558"></path><path d="M896 64h64V128H896zM960 128H1024v64h-64zM1216 192H1280V256h-64zM1280 448h64V512H1280zM320 768H384v64h-64zM769.882353 960h64V1024h-64z" fill="#000000" p-id="20559"></path><path d="M768 896h64v64H768zM768 832h64V896H768z" fill="#7000C3" p-id="20560"></path><path d="M896 896h64v64H896z" fill="#000000" p-id="20561"></path><path d="M896 832h64V896H896z" fill="#7000C3" p-id="20562"></path><path d="M960 832H1024V896h-64zM1024 768h64v64H1024zM512 896h64v64H512z" fill="#000000" p-id="20563"></path><path d="M512 832h64V896H512z" fill="#B652FF" p-id="20564"></path><path d="M384 832h64V896H384z" fill="#000000" p-id="20565"></path></svg>